<mxfile host="app.diagrams.net" modified="2021-07-15T08:01:27.168Z" agent="5.0 (Windows NT 10.0; Win64; x64) AppleWebKit/537.36 (KHTML, like Gecko) Chrome/91.0.4472.124 Safari/537.36" etag="yMcwwQcDlzNlkaMP1jBK" version="14.8.6" type="github" pages="2">
  <diagram id="eD0Ki5IEhunn4MjlGXYJ" name="Page-1">
    <mxGraphModel dx="782" dy="468" grid="1" gridSize="10" guides="1" tooltips="1" connect="1" arrows="1" fold="1" page="1" pageScale="1" pageWidth="850" pageHeight="1100" math="0" shadow="0">
      <root>
        <mxCell id="0" />
        <mxCell id="1" parent="0" />
        <mxCell id="rdzUnLvMyWTXeZDWfd4_-1" value="" style="whiteSpace=wrap;html=1;aspect=fixed;" parent="1" vertex="1">
          <mxGeometry x="40" y="190" width="80" height="80" as="geometry" />
        </mxCell>
        <mxCell id="rdzUnLvMyWTXeZDWfd4_-2" value="" style="rounded=1;whiteSpace=wrap;html=1;" parent="1" vertex="1">
          <mxGeometry x="340" y="210" width="120" height="60" as="geometry" />
        </mxCell>
      </root>
    </mxGraphModel>
  </diagram>
  <diagram id="lS5dhFJzSBvNoqFiq0i7" name="Page-2">
    <mxGraphModel dx="782" dy="3768" grid="1" gridSize="10" guides="1" tooltips="1" connect="1" arrows="1" fold="1" page="1" pageScale="1" pageWidth="850" pageHeight="1100" math="0" shadow="0">
      <root>
        <mxCell id="2VfEVIbhljtaqQi9a-aB-0" />
        <mxCell id="2VfEVIbhljtaqQi9a-aB-1" parent="2VfEVIbhljtaqQi9a-aB-0" />
        <mxCell id="2VfEVIbhljtaqQi9a-aB-2" value="GPC/GDC3" style="fillColor=#E6E6E6;strokeColor=none;dashed=1;verticalAlign=top;fontStyle=1;fontColor=#5A6C86;align=left;fontSize=14;flipV=1;flipH=1;" vertex="1" parent="2VfEVIbhljtaqQi9a-aB-1">
          <mxGeometry x="800" y="-2680" width="390" height="270" as="geometry" />
        </mxCell>
        <mxCell id="2VfEVIbhljtaqQi9a-aB-3" value="" style="ellipse;whiteSpace=wrap;html=1;align=left;fillColor=#E6E6E6;dashed=1;" vertex="1" parent="2VfEVIbhljtaqQi9a-aB-1">
          <mxGeometry x="790" y="-2670" width="415" height="150" as="geometry" />
        </mxCell>
        <mxCell id="2VfEVIbhljtaqQi9a-aB-4" value="GCC" style="fillColor=#E6E6E6;strokeColor=none;dashed=1;verticalAlign=top;fontStyle=1;fontColor=#5A6C86;align=left;fontSize=14;flipV=1;flipH=1;" vertex="1" parent="2VfEVIbhljtaqQi9a-aB-1">
          <mxGeometry x="340" y="-2680" width="380" height="270" as="geometry" />
        </mxCell>
        <mxCell id="2VfEVIbhljtaqQi9a-aB-5" value="" style="ellipse;whiteSpace=wrap;html=1;align=left;fillColor=#E6E6E6;dashed=1;" vertex="1" parent="2VfEVIbhljtaqQi9a-aB-1">
          <mxGeometry x="310" y="-2670" width="440" height="170" as="geometry" />
        </mxCell>
        <mxCell id="2VfEVIbhljtaqQi9a-aB-6" value="MOM DC" style="fillColor=#FFFF99;strokeColor=none;dashed=1;verticalAlign=top;fontStyle=1;fontColor=#5A6C86;align=left;fontSize=14;" vertex="1" parent="2VfEVIbhljtaqQi9a-aB-1">
          <mxGeometry x="80" y="-2910" width="830" height="170" as="geometry" />
        </mxCell>
        <mxCell id="2VfEVIbhljtaqQi9a-aB-7" value="" style="ellipse;whiteSpace=wrap;html=1;align=left;fillColor=#FFFF99;dashed=1;" vertex="1" parent="2VfEVIbhljtaqQi9a-aB-1">
          <mxGeometry x="510" y="-2890" width="440" height="150" as="geometry" />
        </mxCell>
        <mxCell id="2VfEVIbhljtaqQi9a-aB-8" value="" style="ellipse;whiteSpace=wrap;html=1;align=left;fillColor=#FFFF99;dashed=1;" vertex="1" parent="2VfEVIbhljtaqQi9a-aB-1">
          <mxGeometry x="330" y="-2890" width="150" height="140" as="geometry" />
        </mxCell>
        <mxCell id="2VfEVIbhljtaqQi9a-aB-9" value="NCS" style="fillColor=#D5E8D4;strokeColor=none;dashed=1;verticalAlign=top;fontStyle=1;fontColor=#5A6C86;align=left;fontSize=14;" vertex="1" parent="2VfEVIbhljtaqQi9a-aB-1">
          <mxGeometry x="130" y="-3150" width="830" height="220" as="geometry" />
        </mxCell>
        <mxCell id="2VfEVIbhljtaqQi9a-aB-10" style="edgeStyle=orthogonalEdgeStyle;rounded=0;orthogonalLoop=1;jettySize=auto;html=1;exitX=1;exitY=0.5;exitDx=0;exitDy=0;dashed=1;fillColor=#d80073;strokeColor=#000000;" edge="1" parent="2VfEVIbhljtaqQi9a-aB-1" source="2VfEVIbhljtaqQi9a-aB-12" target="2VfEVIbhljtaqQi9a-aB-15">
          <mxGeometry relative="1" as="geometry">
            <Array as="points">
              <mxPoint x="820" y="-2920" />
              <mxPoint x="219" y="-2920" />
            </Array>
          </mxGeometry>
        </mxCell>
        <mxCell id="2VfEVIbhljtaqQi9a-aB-11" value="&lt;b style=&quot;color: rgb(35 , 47 , 62) ; background-color: rgb(248 , 249 , 250)&quot;&gt;Decommissioning&lt;/b&gt;" style="text;html=1;align=center;verticalAlign=middle;resizable=0;points=[];labelBackgroundColor=#ffffff;" vertex="1" connectable="0" parent="2VfEVIbhljtaqQi9a-aB-10">
          <mxGeometry x="0.2044" y="1" relative="1" as="geometry">
            <mxPoint as="offset" />
          </mxGeometry>
        </mxCell>
        <mxCell id="2VfEVIbhljtaqQi9a-aB-12" value="" style="ellipse;whiteSpace=wrap;html=1;align=left;fillColor=#D5E8D4;dashed=1;" vertex="1" parent="2VfEVIbhljtaqQi9a-aB-1">
          <mxGeometry x="310" y="-3130" width="510" height="180" as="geometry" />
        </mxCell>
        <mxCell id="2VfEVIbhljtaqQi9a-aB-13" value="MOM DC" style="fillColor=#E6E6E6;strokeColor=none;dashed=1;verticalAlign=top;fontStyle=1;fontColor=#5A6C86;align=left;fontSize=14;flipV=1;flipH=1;" vertex="1" parent="2VfEVIbhljtaqQi9a-aB-1">
          <mxGeometry x="130" y="-2680" width="160" height="160" as="geometry" />
        </mxCell>
        <mxCell id="2VfEVIbhljtaqQi9a-aB-14" value="every 20 mins&lt;br&gt;&lt;b style=&quot;color: rgb(35 , 47 , 62) ; font-size: 12px ; background-color: rgb(248 , 249 , 250)&quot;&gt;Decommissioning&lt;/b&gt;" style="edgeStyle=orthogonalEdgeStyle;curved=1;orthogonalLoop=1;jettySize=auto;html=1;dashed=1;fillColor=#d80073;strokeColor=#000000;" edge="1" parent="2VfEVIbhljtaqQi9a-aB-1" source="2VfEVIbhljtaqQi9a-aB-15" target="2VfEVIbhljtaqQi9a-aB-29">
          <mxGeometry relative="1" as="geometry" />
        </mxCell>
        <mxCell id="2VfEVIbhljtaqQi9a-aB-15" value="MOM SVN/Jenkins &lt;b&gt;(Decommissioning)&lt;/b&gt;&lt;br&gt;HQMSAS150 (10.4.38.118)" style="outlineConnect=0;fontColor=#232F3E;gradientColor=none;fillColor=#232F3E;strokeColor=none;dashed=0;verticalLabelPosition=bottom;verticalAlign=top;align=center;html=1;fontSize=12;fontStyle=0;aspect=fixed;pointerEvents=1;shape=mxgraph.aws4.traditional_server;" vertex="1" parent="2VfEVIbhljtaqQi9a-aB-1">
          <mxGeometry x="208" y="-2854" width="22" height="38" as="geometry" />
        </mxCell>
        <mxCell id="2VfEVIbhljtaqQi9a-aB-16" value="&lt;font face=&quot;helvetica, arial, sans-serif&quot;&gt;&lt;span style=&quot;white-space: nowrap&quot;&gt;&lt;b&gt;NCS ESPRIT Auto Deployment WorkFlow&lt;/b&gt;&lt;/span&gt;&lt;/font&gt;" style="text;html=1;strokeColor=none;fillColor=none;align=center;verticalAlign=middle;whiteSpace=wrap;rounded=0;fontSize=14;" vertex="1" parent="2VfEVIbhljtaqQi9a-aB-1">
          <mxGeometry x="160" y="-3210" width="219" height="32" as="geometry" />
        </mxCell>
        <mxCell id="2VfEVIbhljtaqQi9a-aB-17" value="" style="edgeStyle=orthogonalEdgeStyle;rounded=0;orthogonalLoop=1;jettySize=auto;html=1;startArrow=classic;startFill=1;endArrow=none;endFill=0;" edge="1" parent="2VfEVIbhljtaqQi9a-aB-1" source="2VfEVIbhljtaqQi9a-aB-18" target="2VfEVIbhljtaqQi9a-aB-39">
          <mxGeometry relative="1" as="geometry">
            <Array as="points">
              <mxPoint x="612" y="-2700" />
              <mxPoint x="210" y="-2700" />
            </Array>
          </mxGeometry>
        </mxCell>
        <mxCell id="2VfEVIbhljtaqQi9a-aB-18" value="MOM Internal SFTP 14/15 (New Castor)&lt;br&gt;hqlxas14-clus.intranet.mom.gov.sg&lt;br&gt;(10.4.37.234)" style="outlineConnect=0;fontColor=#232F3E;gradientColor=none;fillColor=#232F3E;strokeColor=none;dashed=0;verticalLabelPosition=bottom;verticalAlign=top;align=center;html=1;fontSize=12;fontStyle=0;aspect=fixed;pointerEvents=1;shape=mxgraph.aws4.traditional_server;" vertex="1" parent="2VfEVIbhljtaqQi9a-aB-1">
          <mxGeometry x="600.5" y="-2854" width="22" height="38" as="geometry" />
        </mxCell>
        <mxCell id="2VfEVIbhljtaqQi9a-aB-19" style="edgeStyle=orthogonalEdgeStyle;rounded=0;orthogonalLoop=1;jettySize=auto;html=1;startArrow=classic;startFill=1;endArrow=none;endFill=0;" edge="1" parent="2VfEVIbhljtaqQi9a-aB-1" source="2VfEVIbhljtaqQi9a-aB-21" target="2VfEVIbhljtaqQi9a-aB-38">
          <mxGeometry relative="1" as="geometry">
            <Array as="points">
              <mxPoint x="839" y="-2710" />
              <mxPoint x="761" y="-2710" />
              <mxPoint x="761" y="-2630" />
            </Array>
          </mxGeometry>
        </mxCell>
        <mxCell id="2VfEVIbhljtaqQi9a-aB-20" style="edgeStyle=orthogonalEdgeStyle;rounded=1;orthogonalLoop=1;jettySize=auto;html=1;startArrow=classic;startFill=1;endArrow=classic;endFill=1;strokeColor=#000000;dashed=1;dashPattern=1 4;" edge="1" parent="2VfEVIbhljtaqQi9a-aB-1" source="2VfEVIbhljtaqQi9a-aB-21" target="2VfEVIbhljtaqQi9a-aB-49">
          <mxGeometry relative="1" as="geometry">
            <Array as="points">
              <mxPoint x="732" y="-2820" />
            </Array>
          </mxGeometry>
        </mxCell>
        <mxCell id="2VfEVIbhljtaqQi9a-aB-21" value="MOM Internal SFTP 12/13 (New Cypress)&amp;nbsp;&lt;br&gt;hqlxas12-clus.intranet.mom.gov.sg&lt;br&gt;(10.4.237.248)" style="outlineConnect=0;fontColor=#232F3E;gradientColor=none;fillColor=#232F3E;strokeColor=none;dashed=0;verticalLabelPosition=bottom;verticalAlign=top;align=center;html=1;fontSize=12;fontStyle=0;aspect=fixed;pointerEvents=1;shape=mxgraph.aws4.traditional_server;" vertex="1" parent="2VfEVIbhljtaqQi9a-aB-1">
          <mxGeometry x="828" y="-2854" width="22" height="38" as="geometry" />
        </mxCell>
        <mxCell id="2VfEVIbhljtaqQi9a-aB-22" value="every 10mins" style="edgeStyle=orthogonalEdgeStyle;rounded=0;orthogonalLoop=1;jettySize=auto;html=1;" edge="1" parent="2VfEVIbhljtaqQi9a-aB-1" source="2VfEVIbhljtaqQi9a-aB-23" target="2VfEVIbhljtaqQi9a-aB-26">
          <mxGeometry relative="1" as="geometry" />
        </mxCell>
        <mxCell id="2VfEVIbhljtaqQi9a-aB-23" value="NCS - SVN/Jenkins&lt;br&gt;itomsdev009 (10.70.3.36)" style="outlineConnect=0;fontColor=#232F3E;gradientColor=none;fillColor=#232F3E;strokeColor=none;dashed=0;verticalLabelPosition=bottom;verticalAlign=top;align=center;html=1;fontSize=12;fontStyle=0;aspect=fixed;pointerEvents=1;shape=mxgraph.aws4.traditional_server;" vertex="1" parent="2VfEVIbhljtaqQi9a-aB-1">
          <mxGeometry x="387.5" y="-3070" width="22" height="38" as="geometry" />
        </mxCell>
        <mxCell id="2VfEVIbhljtaqQi9a-aB-24" value="NCS App Team" style="aspect=fixed;html=1;points=[];align=center;image;fontSize=12;image=img/lib/mscae/Managed_Desktop.svg;" vertex="1" parent="2VfEVIbhljtaqQi9a-aB-1">
          <mxGeometry x="180" y="-3050" width="50" height="36" as="geometry" />
        </mxCell>
        <mxCell id="2VfEVIbhljtaqQi9a-aB-25" value="every 15 mins" style="edgeStyle=orthogonalEdgeStyle;rounded=0;orthogonalLoop=1;jettySize=auto;html=1;" edge="1" parent="2VfEVIbhljtaqQi9a-aB-1" source="2VfEVIbhljtaqQi9a-aB-26" target="2VfEVIbhljtaqQi9a-aB-27">
          <mxGeometry relative="1" as="geometry" />
        </mxCell>
        <mxCell id="2VfEVIbhljtaqQi9a-aB-26" value="NCS -&amp;nbsp; New SVN/Jenkins&lt;br&gt;itomsdev015 (10.70.3.42)" style="outlineConnect=0;fontColor=#232F3E;gradientColor=none;fillColor=#232F3E;strokeColor=none;dashed=0;verticalLabelPosition=bottom;verticalAlign=top;align=center;html=1;fontSize=12;fontStyle=0;aspect=fixed;pointerEvents=1;shape=mxgraph.aws4.traditional_server;" vertex="1" parent="2VfEVIbhljtaqQi9a-aB-1">
          <mxGeometry x="550" y="-3070" width="22" height="38" as="geometry" />
        </mxCell>
        <mxCell id="2VfEVIbhljtaqQi9a-aB-27" value="NCS&amp;amp;MOM SVN SyncUp&lt;br&gt;NCS IP:Zeus (10.70.3.34)&lt;br&gt;MOM IP:Zeus (10.251.17.229)" style="outlineConnect=0;fontColor=#232F3E;gradientColor=none;fillColor=#232F3E;strokeColor=none;dashed=0;verticalLabelPosition=bottom;verticalAlign=top;align=center;html=1;fontSize=12;fontStyle=0;aspect=fixed;pointerEvents=1;shape=mxgraph.aws4.traditional_server;" vertex="1" parent="2VfEVIbhljtaqQi9a-aB-1">
          <mxGeometry x="700" y="-3070" width="22" height="38" as="geometry" />
        </mxCell>
        <mxCell id="2VfEVIbhljtaqQi9a-aB-28" style="edgeStyle=orthogonalEdgeStyle;rounded=0;orthogonalLoop=1;jettySize=auto;html=1;" edge="1" parent="2VfEVIbhljtaqQi9a-aB-1" source="2VfEVIbhljtaqQi9a-aB-29" target="2VfEVIbhljtaqQi9a-aB-18">
          <mxGeometry relative="1" as="geometry">
            <Array as="points">
              <mxPoint x="470" y="-2830" />
              <mxPoint x="470" y="-2830" />
            </Array>
          </mxGeometry>
        </mxCell>
        <mxCell id="2VfEVIbhljtaqQi9a-aB-29" value="MOM New SVN/Jenkins&lt;br&gt;&lt;span style=&quot;font-size: 11.0pt ; font-family: &amp;#34;calibri&amp;#34; , sans-serif&quot;&gt;HQMSAS477&amp;nbsp;&lt;/span&gt;(10.4.13.21)" style="outlineConnect=0;fontColor=#232F3E;gradientColor=none;fillColor=#232F3E;strokeColor=none;dashed=0;verticalLabelPosition=bottom;verticalAlign=top;align=center;html=1;fontSize=12;fontStyle=0;aspect=fixed;pointerEvents=1;shape=mxgraph.aws4.traditional_server;" vertex="1" parent="2VfEVIbhljtaqQi9a-aB-1">
          <mxGeometry x="397.25" y="-2854.11" width="22" height="38" as="geometry" />
        </mxCell>
        <mxCell id="2VfEVIbhljtaqQi9a-aB-30" style="edgeStyle=orthogonalEdgeStyle;rounded=0;orthogonalLoop=1;jettySize=auto;html=1;fontSize=14;" edge="1" parent="2VfEVIbhljtaqQi9a-aB-1" source="2VfEVIbhljtaqQi9a-aB-24" target="2VfEVIbhljtaqQi9a-aB-12">
          <mxGeometry relative="1" as="geometry">
            <mxPoint x="230" y="-3032" as="sourcePoint" />
            <mxPoint x="410" y="-3032" as="targetPoint" />
          </mxGeometry>
        </mxCell>
        <mxCell id="2VfEVIbhljtaqQi9a-aB-31" style="edgeStyle=orthogonalEdgeStyle;rounded=0;orthogonalLoop=1;jettySize=auto;html=1;startArrow=none;startFill=0;fontSize=14;" edge="1" parent="2VfEVIbhljtaqQi9a-aB-1" source="2VfEVIbhljtaqQi9a-aB-33" target="2VfEVIbhljtaqQi9a-aB-35">
          <mxGeometry relative="1" as="geometry" />
        </mxCell>
        <mxCell id="2VfEVIbhljtaqQi9a-aB-32" style="edgeStyle=orthogonalEdgeStyle;rounded=1;orthogonalLoop=1;jettySize=auto;html=1;entryX=0;entryY=0.5;entryDx=0;entryDy=0;entryPerimeter=0;dashed=1;dashPattern=1 4;startArrow=classic;startFill=1;endArrow=classic;endFill=1;strokeColor=#000000;" edge="1" parent="2VfEVIbhljtaqQi9a-aB-1" source="2VfEVIbhljtaqQi9a-aB-33" target="2VfEVIbhljtaqQi9a-aB-51">
          <mxGeometry relative="1" as="geometry" />
        </mxCell>
        <mxCell id="2VfEVIbhljtaqQi9a-aB-33" value="&lt;div&gt;&lt;font color=&quot;#444444&quot; face=&quot;calibri, sans-serif, mongolian baiti, microsoft yi baiti, javanese text, yu gothic&quot;&gt;&lt;span style=&quot;font-size: 14.6667px ; background-color: rgb(255 , 255 , 255)&quot;&gt;Internet&lt;br&gt;App Servers (172.X.X.X)&lt;/span&gt;&lt;/font&gt;&lt;/div&gt;" style="outlineConnect=0;fontColor=#232F3E;gradientColor=#F78E04;gradientDirection=north;fillColor=#D05C17;strokeColor=#ffffff;dashed=0;verticalLabelPosition=bottom;verticalAlign=top;align=center;html=1;fontSize=12;fontStyle=0;aspect=fixed;shape=mxgraph.aws4.resourceIcon;resIcon=mxgraph.aws4.ec2;" vertex="1" parent="2VfEVIbhljtaqQi9a-aB-1">
          <mxGeometry x="421.75" y="-2500" width="35" height="35" as="geometry" />
        </mxCell>
        <mxCell id="2VfEVIbhljtaqQi9a-aB-34" style="edgeStyle=orthogonalEdgeStyle;rounded=0;orthogonalLoop=1;jettySize=auto;html=1;fontSize=14;startArrow=classic;startFill=1;" edge="1" parent="2VfEVIbhljtaqQi9a-aB-1" source="2VfEVIbhljtaqQi9a-aB-35" target="2VfEVIbhljtaqQi9a-aB-38">
          <mxGeometry relative="1" as="geometry" />
        </mxCell>
        <mxCell id="2VfEVIbhljtaqQi9a-aB-35" value="IT Internet SFTP&lt;br&gt;nlb-it-uatezit-sftp.gcc.mom.gov.sg&lt;br&gt;(172.16.79.186&amp;amp;172.16.79.165)&lt;br&gt;&lt;span style=&quot;font-size: 10.0pt ; font-family: &amp;#34;tahoma&amp;#34; , sans-serif ; color: #1f3864&quot;&gt;nlb-it-prdezit-sftp.gcc.mom.gov.sg&lt;br&gt;(&lt;/span&gt;172.16.177.173&amp;amp;172.16.177.180)&lt;span style=&quot;font-size: 10.0pt ; font-family: &amp;#34;tahoma&amp;#34; , sans-serif ; color: #1f3864&quot;&gt;&lt;br&gt;)&lt;br&gt;&lt;/span&gt;" style="outlineConnect=0;fontColor=#232F3E;gradientColor=#4AB29A;gradientDirection=north;fillColor=#116D5B;strokeColor=#ffffff;dashed=0;verticalLabelPosition=bottom;verticalAlign=top;align=center;html=1;fontSize=12;fontStyle=0;aspect=fixed;shape=mxgraph.aws4.resourceIcon;resIcon=mxgraph.aws4.transfer_for_sftp;" vertex="1" parent="2VfEVIbhljtaqQi9a-aB-1">
          <mxGeometry x="419.25" y="-2650" width="40" height="40" as="geometry" />
        </mxCell>
        <mxCell id="2VfEVIbhljtaqQi9a-aB-36" style="edgeStyle=orthogonalEdgeStyle;rounded=0;orthogonalLoop=1;jettySize=auto;html=1;fontSize=14;" edge="1" parent="2VfEVIbhljtaqQi9a-aB-1" source="2VfEVIbhljtaqQi9a-aB-37" target="2VfEVIbhljtaqQi9a-aB-38">
          <mxGeometry relative="1" as="geometry" />
        </mxCell>
        <mxCell id="2VfEVIbhljtaqQi9a-aB-37" value="&lt;div&gt;&lt;font color=&quot;#444444&quot; face=&quot;calibri, sans-serif, mongolian baiti, microsoft yi baiti, javanese text, yu gothic&quot;&gt;&lt;span style=&quot;font-size: 14.6667px ; background-color: rgb(255 , 255 , 255)&quot;&gt;Intranet&lt;br&gt;App Servers (10.X.X.X)&lt;/span&gt;&lt;/font&gt;&lt;/div&gt;" style="outlineConnect=0;fontColor=#232F3E;gradientColor=#F78E04;gradientDirection=north;fillColor=#D05C17;strokeColor=#ffffff;dashed=0;verticalLabelPosition=bottom;verticalAlign=top;align=center;html=1;fontSize=12;fontStyle=0;aspect=fixed;shape=mxgraph.aws4.resourceIcon;resIcon=mxgraph.aws4.ec2;" vertex="1" parent="2VfEVIbhljtaqQi9a-aB-1">
          <mxGeometry x="620" y="-2500" width="35" height="35" as="geometry" />
        </mxCell>
        <mxCell id="2VfEVIbhljtaqQi9a-aB-38" value="IT Intranet SFTP&lt;br&gt;&lt;span style=&quot;font-size: 10.0pt ; font-family: &amp;#34;tahoma&amp;#34; , sans-serif ; color: #1f3864&quot;&gt;gcc-uatsftp.intranet.mom.gov.sg &lt;br&gt;(10.191.16.60)&lt;/span&gt;&lt;span style=&quot;color: rgb(31 , 56 , 100) ; font-family: &amp;#34;tahoma&amp;#34; , sans-serif ; font-size: 13.3333px&quot;&gt;&lt;br&gt;gcc-prdsftp.intranet.mom.gov.sg&lt;br&gt;(10.191.157.36)&lt;br&gt;&lt;/span&gt;" style="outlineConnect=0;fontColor=#232F3E;gradientColor=#4AB29A;gradientDirection=north;fillColor=#116D5B;strokeColor=#ffffff;dashed=0;verticalLabelPosition=bottom;verticalAlign=top;align=center;html=1;fontSize=12;fontStyle=0;aspect=fixed;shape=mxgraph.aws4.resourceIcon;resIcon=mxgraph.aws4.transfer_for_sftp;" vertex="1" parent="2VfEVIbhljtaqQi9a-aB-1">
          <mxGeometry x="620" y="-2650" width="40" height="40" as="geometry" />
        </mxCell>
        <mxCell id="2VfEVIbhljtaqQi9a-aB-39" value="App Servers (10.XXX.XXX.XXX)" style="pointerEvents=1;shadow=0;dashed=0;html=1;strokeColor=none;fillColor=#505050;labelPosition=center;verticalLabelPosition=bottom;verticalAlign=top;outlineConnect=0;align=center;shape=mxgraph.office.servers.application_server;" vertex="1" parent="2VfEVIbhljtaqQi9a-aB-1">
          <mxGeometry x="196" y="-2623" width="46" height="56" as="geometry" />
        </mxCell>
        <mxCell id="2VfEVIbhljtaqQi9a-aB-40" style="edgeStyle=orthogonalEdgeStyle;rounded=1;orthogonalLoop=1;jettySize=auto;html=1;dashed=1;dashPattern=1 4;startArrow=classic;startFill=1;endArrow=classic;endFill=1;strokeColor=#000000;" edge="1" parent="2VfEVIbhljtaqQi9a-aB-1" source="2VfEVIbhljtaqQi9a-aB-41" target="2VfEVIbhljtaqQi9a-aB-53">
          <mxGeometry relative="1" as="geometry" />
        </mxCell>
        <mxCell id="2VfEVIbhljtaqQi9a-aB-41" value="Intranet&lt;br&gt;App Servers (10.X.X.X.X - Natted IP)" style="pointerEvents=1;shadow=0;dashed=0;html=1;strokeColor=none;fillColor=#505050;labelPosition=center;verticalLabelPosition=bottom;verticalAlign=top;outlineConnect=0;align=center;shape=mxgraph.office.servers.application_server;" vertex="1" parent="2VfEVIbhljtaqQi9a-aB-1">
          <mxGeometry x="884" y="-2520" width="46" height="56" as="geometry" />
        </mxCell>
        <mxCell id="2VfEVIbhljtaqQi9a-aB-42" value="Internet&lt;br&gt;App Servers (10.X.X.X - Natted IP)" style="pointerEvents=1;shadow=0;dashed=0;html=1;strokeColor=none;fillColor=#505050;labelPosition=center;verticalLabelPosition=bottom;verticalAlign=top;outlineConnect=0;align=center;shape=mxgraph.office.servers.application_server;" vertex="1" parent="2VfEVIbhljtaqQi9a-aB-1">
          <mxGeometry x="1084" y="-2520" width="46" height="56" as="geometry" />
        </mxCell>
        <mxCell id="2VfEVIbhljtaqQi9a-aB-43" style="edgeStyle=orthogonalEdgeStyle;rounded=0;orthogonalLoop=1;jettySize=auto;html=1;startArrow=classic;startFill=1;endArrow=classic;endFill=1;strokeColor=#000000;" edge="1" parent="2VfEVIbhljtaqQi9a-aB-1" source="2VfEVIbhljtaqQi9a-aB-44" target="2VfEVIbhljtaqQi9a-aB-45">
          <mxGeometry relative="1" as="geometry" />
        </mxCell>
        <mxCell id="2VfEVIbhljtaqQi9a-aB-44" value="Intranet SFTP&lt;br&gt;sftpintra3.pgc.gov.sg &lt;br&gt;(10.92.73.112/10.93.73.112)" style="shape=image;html=1;verticalAlign=top;verticalLabelPosition=bottom;labelBackgroundColor=#ffffff;imageAspect=0;aspect=fixed;image=https://cdn2.iconfinder.com/data/icons/whcompare-servers-web-hosting/50/sftp-128.png;fillColor=#E6E6E6;" vertex="1" parent="2VfEVIbhljtaqQi9a-aB-1">
          <mxGeometry x="880" y="-2655" width="50" height="50" as="geometry" />
        </mxCell>
        <mxCell id="2VfEVIbhljtaqQi9a-aB-45" value="Internet SFTP&lt;br&gt;sftpinter3.pgc.gov.sg &lt;br&gt;(10.92.1.85/10.93.1.85)" style="shape=image;html=1;verticalAlign=top;verticalLabelPosition=bottom;labelBackgroundColor=#ffffff;imageAspect=0;aspect=fixed;image=https://cdn2.iconfinder.com/data/icons/whcompare-servers-web-hosting/50/sftp-128.png;fillColor=#E6E6E6;" vertex="1" parent="2VfEVIbhljtaqQi9a-aB-1">
          <mxGeometry x="1080" y="-2655" width="50" height="50" as="geometry" />
        </mxCell>
        <mxCell id="2VfEVIbhljtaqQi9a-aB-46" style="edgeStyle=orthogonalEdgeStyle;rounded=0;orthogonalLoop=1;jettySize=auto;html=1;startArrow=classic;startFill=1;endArrow=none;endFill=0;strokeColor=#000000;" edge="1" parent="2VfEVIbhljtaqQi9a-aB-1" source="2VfEVIbhljtaqQi9a-aB-44" target="2VfEVIbhljtaqQi9a-aB-41">
          <mxGeometry relative="1" as="geometry" />
        </mxCell>
        <mxCell id="2VfEVIbhljtaqQi9a-aB-47" style="edgeStyle=orthogonalEdgeStyle;rounded=0;orthogonalLoop=1;jettySize=auto;html=1;startArrow=classic;startFill=1;endArrow=none;endFill=0;strokeColor=#000000;" edge="1" parent="2VfEVIbhljtaqQi9a-aB-1" source="2VfEVIbhljtaqQi9a-aB-45" target="2VfEVIbhljtaqQi9a-aB-42">
          <mxGeometry relative="1" as="geometry" />
        </mxCell>
        <mxCell id="2VfEVIbhljtaqQi9a-aB-48" style="edgeStyle=orthogonalEdgeStyle;rounded=0;orthogonalLoop=1;jettySize=auto;html=1;startArrow=classic;startFill=1;endArrow=none;endFill=0;strokeColor=#000000;" edge="1" parent="2VfEVIbhljtaqQi9a-aB-1" source="2VfEVIbhljtaqQi9a-aB-21" target="2VfEVIbhljtaqQi9a-aB-44">
          <mxGeometry relative="1" as="geometry">
            <Array as="points">
              <mxPoint x="910" y="-2835" />
            </Array>
          </mxGeometry>
        </mxCell>
        <mxCell id="2VfEVIbhljtaqQi9a-aB-49" value="&lt;font style=&quot;font-size: 9px&quot;&gt;&lt;b&gt;SLIFT&lt;/b&gt;&lt;/font&gt;" style="outlineConnect=0;dashed=0;verticalLabelPosition=bottom;verticalAlign=top;align=center;html=1;shape=mxgraph.aws3.data_encryption_key;fillColor=#7D7C7C;gradientColor=none;" vertex="1" parent="2VfEVIbhljtaqQi9a-aB-1">
          <mxGeometry x="722" y="-2780" width="20" height="20" as="geometry" />
        </mxCell>
        <mxCell id="2VfEVIbhljtaqQi9a-aB-50" style="edgeStyle=orthogonalEdgeStyle;rounded=1;orthogonalLoop=1;jettySize=auto;html=1;dashed=1;dashPattern=1 4;startArrow=classic;startFill=1;endArrow=classic;endFill=1;strokeColor=#000000;" edge="1" parent="2VfEVIbhljtaqQi9a-aB-1" source="2VfEVIbhljtaqQi9a-aB-51" target="2VfEVIbhljtaqQi9a-aB-37">
          <mxGeometry relative="1" as="geometry" />
        </mxCell>
        <mxCell id="2VfEVIbhljtaqQi9a-aB-51" value="&lt;font style=&quot;font-size: 9px&quot;&gt;&lt;b&gt;SLIFT&lt;/b&gt;&lt;/font&gt;" style="outlineConnect=0;dashed=0;verticalLabelPosition=bottom;verticalAlign=top;align=center;html=1;shape=mxgraph.aws3.data_encryption_key;fillColor=#7D7C7C;gradientColor=none;" vertex="1" parent="2VfEVIbhljtaqQi9a-aB-1">
          <mxGeometry x="530" y="-2480" width="20" height="20" as="geometry" />
        </mxCell>
        <mxCell id="2VfEVIbhljtaqQi9a-aB-52" style="edgeStyle=orthogonalEdgeStyle;rounded=1;orthogonalLoop=1;jettySize=auto;html=1;dashed=1;dashPattern=1 4;startArrow=classic;startFill=1;endArrow=classic;endFill=1;strokeColor=#000000;" edge="1" parent="2VfEVIbhljtaqQi9a-aB-1" source="2VfEVIbhljtaqQi9a-aB-53" target="2VfEVIbhljtaqQi9a-aB-42">
          <mxGeometry relative="1" as="geometry" />
        </mxCell>
        <mxCell id="2VfEVIbhljtaqQi9a-aB-53" value="&lt;font style=&quot;font-size: 9px&quot;&gt;&lt;b&gt;SLIFT&lt;/b&gt;&lt;/font&gt;" style="outlineConnect=0;dashed=0;verticalLabelPosition=bottom;verticalAlign=top;align=center;html=1;shape=mxgraph.aws3.data_encryption_key;fillColor=#7D7C7C;gradientColor=none;" vertex="1" parent="2VfEVIbhljtaqQi9a-aB-1">
          <mxGeometry x="1000" y="-2484" width="20" height="20" as="geometry" />
        </mxCell>
        <mxCell id="2VfEVIbhljtaqQi9a-aB-54" style="edgeStyle=orthogonalEdgeStyle;rounded=0;orthogonalLoop=1;jettySize=auto;html=1;fontSize=14;" edge="1" parent="2VfEVIbhljtaqQi9a-aB-1" source="2VfEVIbhljtaqQi9a-aB-29" target="2VfEVIbhljtaqQi9a-aB-21">
          <mxGeometry relative="1" as="geometry">
            <Array as="points">
              <mxPoint x="430" y="-2835" />
              <mxPoint x="430" y="-2860" />
              <mxPoint x="761" y="-2860" />
              <mxPoint x="761" y="-2835" />
            </Array>
          </mxGeometry>
        </mxCell>
        <mxCell id="2VfEVIbhljtaqQi9a-aB-55" value="&lt;font color=&quot;#006633&quot;&gt;&lt;b&gt;Onboarding 1&lt;/b&gt;&lt;/font&gt;" style="text;html=1;strokeColor=none;fillColor=none;align=center;verticalAlign=middle;whiteSpace=wrap;rounded=0;dashed=1;" vertex="1" parent="2VfEVIbhljtaqQi9a-aB-1">
          <mxGeometry x="491" y="-3130" width="140" height="20" as="geometry" />
        </mxCell>
        <mxCell id="2VfEVIbhljtaqQi9a-aB-56" value="&lt;font color=&quot;#006633&quot;&gt;&lt;b&gt;Onboarding 2&lt;/b&gt;&lt;/font&gt;" style="text;html=1;strokeColor=none;fillColor=none;align=center;verticalAlign=middle;whiteSpace=wrap;rounded=0;dashed=1;" vertex="1" parent="2VfEVIbhljtaqQi9a-aB-1">
          <mxGeometry x="349.75" y="-2890" width="110.5" height="20" as="geometry" />
        </mxCell>
        <mxCell id="2VfEVIbhljtaqQi9a-aB-57" style="edgeStyle=orthogonalEdgeStyle;rounded=0;orthogonalLoop=1;jettySize=auto;html=1;exitX=1;exitY=0.5;exitDx=0;exitDy=0;fillColor=#d80073;strokeColor=#000000;" edge="1" parent="2VfEVIbhljtaqQi9a-aB-1" source="2VfEVIbhljtaqQi9a-aB-12" target="2VfEVIbhljtaqQi9a-aB-29">
          <mxGeometry relative="1" as="geometry">
            <mxPoint x="820" y="-3040" as="sourcePoint" />
            <mxPoint x="399" y="-2853.9954693339196" as="targetPoint" />
            <Array as="points">
              <mxPoint x="840" y="-3040" />
              <mxPoint x="840" y="-2910" />
              <mxPoint x="408" y="-2910" />
            </Array>
          </mxGeometry>
        </mxCell>
        <mxCell id="2VfEVIbhljtaqQi9a-aB-58" value="&lt;font color=&quot;#006633&quot;&gt;&lt;b&gt;Onboarding 3&lt;/b&gt;&lt;/font&gt;" style="text;html=1;strokeColor=none;fillColor=none;align=center;verticalAlign=middle;whiteSpace=wrap;rounded=0;dashed=1;" vertex="1" parent="2VfEVIbhljtaqQi9a-aB-1">
          <mxGeometry x="676.75" y="-2890" width="110.5" height="20" as="geometry" />
        </mxCell>
        <mxCell id="2VfEVIbhljtaqQi9a-aB-59" value="&lt;font color=&quot;#006633&quot;&gt;&lt;b&gt;Onboarding 4&lt;/b&gt;&lt;/font&gt;" style="text;html=1;strokeColor=none;fillColor=none;align=center;verticalAlign=middle;whiteSpace=wrap;rounded=0;dashed=1;" vertex="1" parent="2VfEVIbhljtaqQi9a-aB-1">
          <mxGeometry x="484.75" y="-2670" width="110.5" height="20" as="geometry" />
        </mxCell>
        <mxCell id="2VfEVIbhljtaqQi9a-aB-60" value="&lt;font color=&quot;#006633&quot;&gt;&lt;b&gt;Onboarding 5&lt;/b&gt;&lt;/font&gt;" style="text;html=1;strokeColor=none;fillColor=none;align=center;verticalAlign=middle;whiteSpace=wrap;rounded=0;dashed=1;" vertex="1" parent="2VfEVIbhljtaqQi9a-aB-1">
          <mxGeometry x="950" y="-2670" width="110.5" height="20" as="geometry" />
        </mxCell>
      </root>
    </mxGraphModel>
  </diagram>
</mxfile>
